HIERARCHY
ROOT Hips
{
	OFFSET -3.958830 18.904000 13.208200
	CHANNELS 6 Xposition Yposition Zposition Zrotation Yrotation Xrotation 
	JOINT LHipJoint
	{
		OFFSET 0.000000 0.000000 0.000000
		CHANNELS 3 Zrotation Yrotation Xrotation
		JOINT LeftUpLeg
		{
			OFFSET 1.800000 -1.400000 0.085000
			CHANNELS 3 Zrotation Yrotation Xrotation
			JOINT LeftLeg
			{
				OFFSET 2.215000 -6.000000 0.000000
				CHANNELS 3 Zrotation Yrotation Xrotation
				JOINT LeftFoot
				{
					OFFSET 2.500000 -6.900000 0.000000
					CHANNELS 3 Zrotation Yrotation Xrotation
					JOINT LeftToeBase
					{
						OFFSET 0.200000 -0.500000 1.950000
						CHANNELS 3 Zrotation Yrotation Xrotation
						End Site
						{
							OFFSET 0.000000 0.000000 0.000000
						}
					}
				}
			}
		}
	}
	JOINT RHipJoint
	{
		OFFSET 0.000000 0.000000 0.000000
		CHANNELS 3 Zrotation Yrotation Xrotation
		JOINT RightUpLeg
		{
			OFFSET -1.800000 -1.400000 0.085000
			CHANNELS 3 Zrotation Yrotation Xrotation
			JOINT RightLeg
			{
				OFFSET -2.215000 -6.000000 0.000000
				CHANNELS 3 Zrotation Yrotation Xrotation
				JOINT RightFoot
				{
					OFFSET -2.500000 -6.900000 0.000000
					CHANNELS 3 Zrotation Yrotation Xrotation
					JOINT RightToeBase
					{
						OFFSET -0.200000 -0.500000 1.950000
						CHANNELS 3 Zrotation Yrotation Xrotation
						End Site
						{
							OFFSET 0.000000 0.000000 0.000000
						}
					}
				}
			}
		}
	}
	JOINT LowerBack
	{
		OFFSET 0.000000 0.000000 0.000000
		CHANNELS 3 Zrotation Yrotation Xrotation
		JOINT Spine
		{
			OFFSET -0.087000 1.940000 -0.288900
			CHANNELS 3 Zrotation Yrotation Xrotation
			JOINT Spine1
			{
				OFFSET 0.000000 1.950000 0.060000
				CHANNELS 3 Zrotation Yrotation Xrotation
				JOINT Neck
				{
					OFFSET 0.000000 0.000000 0.000000
					CHANNELS 3 Zrotation Yrotation Xrotation
					JOINT Neck1
					{
						OFFSET 0.000000 1.600000 0.340000
						CHANNELS 3 Zrotation Yrotation Xrotation
						JOINT Head
						{
							OFFSET 0.000000 1.667000 -0.240000
							CHANNELS 3 Zrotation Yrotation Xrotation
							End Site
							{
								OFFSET 0.000000 0.000000 0.000000
							}
						}
					}
				}
				JOINT LeftShoulder
				{
					OFFSET 0.000000 0.000000 0.000000
					CHANNELS 3 Zrotation Yrotation Xrotation
					JOINT LeftArm
					{
						OFFSET 2.700000 1.550000 -0.730000
						CHANNELS 3 Zrotation Yrotation Xrotation
						JOINT LeftForeArm
						{
							OFFSET 5.450000 0.000000 0.000000
							CHANNELS 3 Zrotation Yrotation Xrotation
							JOINT LeftHand
							{
								OFFSET 3.450000 0.000000 0.000000
								CHANNELS 3 Zrotation Yrotation Xrotation
								JOINT LeftHandIndex1
								{
									OFFSET 0.750000 0.000000 0.000000
									CHANNELS 3 Zrotation Yrotation Xrotation
									End Site
									{
										OFFSET 0.000000 0.000000 0.000000
									}
								}
							}
						}
					}
				}
				JOINT RightShoulder
				{
					OFFSET 0.000000 0.000000 0.000000
					CHANNELS 3 Zrotation Yrotation Xrotation
					JOINT RightArm
					{
						OFFSET -2.700000 1.550000 -0.730000
						CHANNELS 3 Zrotation Yrotation Xrotation
						JOINT RightForeArm
						{
							OFFSET -5.450000 0.000000 0.000000
							CHANNELS 3 Zrotation Yrotation Xrotation
							JOINT RightHand
							{
								OFFSET -3.450000 0.000000 0.000000
								CHANNELS 3 Zrotation Yrotation Xrotation
								JOINT RightHandIndex1
								{
									OFFSET -0.750000 0.000000 0.000000
									CHANNELS 3 Zrotation Yrotation Xrotation
									End Site
									{
										OFFSET 0.000000 0.000000 0.000000
									}
								}
							}
						}
					}
				}
			}
		}
	}
}
MOTION
Frames: 14
Frame Time: 0.016667
-0.556620 17.771510 -0.846830 -4.204521 -6.854448 2.623000 -14.607506 12.180136 2.624899 5.031248 -2.200066 -15.517257 -9.492157 7.545477 19.906374 0.330298 4.135688 3.038480 0.019130 0.076730 0.131260 18.828884 -12.088439 2.862668 -0.209882 0.422173 -12.912736 5.095075 -4.668856 14.880748 0.020404 -3.546836 2.991373 -0.032610 0.034360 0.123560 -5.072326 2.453744 -6.761629 14.727713 2.202915 1.674645 -7.167368 2.007006 6.878462 3.282242 8.888788 -9.254118 15.118904 -23.018618 28.060910 -5.958100 -16.041020 6.090560 -16.071526 -8.878339 5.181869 -41.676596 -3.386244 -6.092459 -11.432413 -25.459559 1.736225 -3.681598 3.356178 -0.341510 0.104140 -0.037870 -0.011030 9.015254 3.545632 4.930160 63.326912 3.057610 -3.499067 2.282081 11.681603 -1.038207 2.996682 -1.570560 0.176650 -0.202860 -0.166260 0.229640 
-0.557910 17.778810 -0.849480 -4.245449 -7.047200 2.491738 -14.605537 12.228961 2.630684 5.147156 -2.150080 -15.285170 -9.542238 7.535125 19.680084 0.339579 4.116837 3.038620 0.017440 0.067690 0.145110 18.826258 -12.052563 2.877938 -0.116423 0.344702 -12.496745 5.037159 -4.608474 14.358844 0.005179 -3.504099 3.007111 -0.050500 0.014040 0.119210 -5.067296 2.305889 -6.800764 14.844678 2.070909 1.880327 -7.097361 1.930363 6.765684 3.113532 8.577144 -9.343939 14.284792 -21.854568 29.573245 -5.569580 -15.239810 5.951140 -16.062247 -8.840942 5.243917 -42.030877 -3.163570 -6.257895 -12.005915 -25.967178 1.860595 -3.654988 3.348900 -0.312560 0.081670 -0.017080 -0.020150 9.312000 3.654553 4.992466 63.144680 2.590676 -4.021919 2.011570 12.157076 -1.057156 3.004795 -1.542398 0.177990 -0.207310 -0.168540 0.219470 
-0.560160 17.783930 -0.853710 -4.263074 -7.406504 2.368997 -14.603985 12.283472 2.641022 5.227003 -2.093456 -15.062248 -9.601144 7.529345 19.434828 0.348167 4.101547 3.037269 0.009650 0.053730 0.150430 18.821955 -12.016872 2.887923 -0.025523 0.310043 -12.249290 4.913395 -4.554166 14.089246 -0.003202 -3.464415 3.019561 -0.069130 0.000810 0.115730 -5.058008 2.147933 -6.835850 14.910868 1.945692 2.101190 -7.086060 1.872649 6.648009 2.969576 8.157640 -9.367354 13.275986 -20.448921 31.107841 -5.121160 -14.275770 5.894580 -16.073765 -8.657997 5.249225 -42.349850 -2.901659 -6.428659 -12.487182 -26.490518 1.973141 -3.636169 3.345056 -0.288930 0.064410 -0.002950 -0.030920 9.593099 3.700511 4.997339 62.965009 2.240312 -4.476931 1.948295 12.582894 -1.062084 3.012592 -1.516024 0.177850 -0.212330 -0.164080 0.210800 
-0.560080 17.786920 -0.858500 -4.300854 -7.683401 2.233004 -14.602781 12.344588 2.654933 5.292445 -2.065456 -14.920142 -9.603724 7.535025 19.367679 0.347737 4.105593 3.028102 0.003880 0.039150 0.155180 18.816176 -11.979413 2.893181 0.027820 0.300149 -12.101364 4.854691 -4.545030 14.042063 -0.011400 -3.438322 3.025065 -0.084180 -0.010270 0.113990 -5.047360 1.973067 -6.870197 15.039658 1.795894 2.337289 -7.129926 1.804033 6.522049 2.866887 7.638006 -9.345322 12.095531 -18.953534 32.648835 -4.750450 -13.227340 5.812320 -16.087667 -8.383529 5.175077 -42.770312 -2.766859 -6.556701 -12.654640 -26.854210 2.001622 -3.622140 3.337616 -0.260780 0.049370 0.008810 -0.040910 9.796129 3.715023 5.003901 62.833468 1.859372 -4.951639 2.038241 12.985227 -1.058695 3.014450 -1.491891 0.173200 -0.216720 -0.157210 0.198890 
-0.558840 17.787160 -0.864670 -4.317523 -8.035238 2.084230 -14.600763 12.412803 2.676270 5.328427 -2.046458 -14.821094 -9.619807 7.560370 19.380630 0.349978 4.114971 3.015962 0.004830 0.034130 0.161890 18.809156 -11.944506 2.891609 0.074132 0.317079 -12.081068 4.703550 -4.536300 14.252329 -0.018931 -3.410089 3.033072 -0.093650 -0.024020 0.110230 -5.035283 1.785970 -6.905035 15.189282 1.659719 2.616753 -7.213241 1.766806 6.395192 2.772923 6.991788 -9.304253 10.694916 -17.311390 34.244425 -4.376670 -12.063810 5.661150 -16.082436 -8.059368 5.060677 -43.126543 -2.698759 -6.642250 -12.922998 -27.220521 2.060868 -3.604750 3.332046 -0.233420 0.032930 0.022590 -0.046590 9.960502 3.779366 5.012992 62.708944 1.515534 -5.384881 2.189947 13.274924 -1.044614 3.016464 -1.470119 0.170090 -0.219910 -0.155560 0.187490 
-0.557970 17.785790 -0.869160 -4.325385 -8.344449 1.925701 -14.601956 12.487778 2.698163 5.369416 -2.021671 -14.700162 -9.650374 7.597596 19.397477 0.359656 4.131182 3.004009 0.002760 0.026660 0.164120 18.799054 -11.905936 2.884173 0.119015 0.346712 -12.110508 4.534929 -4.541125 14.637191 -0.023351 -3.390332 3.039309 -0.105610 -0.031900 0.107950 -5.014624 1.578510 -6.934737 15.272335 1.514557 2.870208 -7.279779 1.716243 6.315114 2.656453 6.248533 -9.275293 9.131053 -15.608639 35.760765 -3.979530 -10.913930 5.680240 -16.011377 -7.729176 4.961288 -43.506245 -2.615312 -6.760429 -13.177795 -27.713591 2.128621 -3.589406 3.331371 -0.212860 0.020400 0.032580 -0.050420 10.105344 3.902053 5.033186 62.555180 1.168848 -5.793464 2.434140 13.471969 -1.019557 3.021886 -1.451458 0.168900 -0.224280 -0.153540 0.180480 
-0.558070 17.782020 -0.875070 -4.296619 -8.718138 1.823293 -14.609303 12.556184 2.722660 5.391774 -2.014241 -14.681483 -9.730904 7.670008 19.501691 0.376817 4.163769 2.990093 -0.005870 0.016810 0.161430 18.784830 -11.861861 2.872623 0.126397 0.395049 -12.232099 4.427403 -4.554920 15.046859 -0.022381 -3.374603 3.044475 -0.118190 -0.030620 0.106010 -4.979569 1.371664 -6.955698 15.220268 1.419651 3.077681 -7.292455 1.695999 6.252975 2.563701 5.467873 -9.224801 7.549661 -13.910720 36.920534 -3.750370 -9.650500 5.863460 -15.866019 -7.318430 4.821203 -43.909241 -2.624411 -6.846104 -13.361491 -28.204417 2.192472 -3.584623 3.330711 -0.204140 0.016410 0.036870 -0.053640 10.139556 3.986113 5.045908 62.430094 0.843940 -6.147444 2.768178 13.555396 -0.991768 3.029984 -1.436468 0.167530 -0.226130 -0.149620 0.177990 
-0.558060 17.775420 -0.879210 -4.210837 -8.920857 1.714162 -14.627912 12.630377 2.748815 5.365931 -2.023781 -14.701756 -9.810969 7.750132 19.657510 0.389831 4.209821 2.973478 -0.017910 0.003730 0.156260 18.762139 -11.805003 2.852035 0.110237 0.443109 -12.361497 4.320508 -4.580944 15.533323 -0.017008 -3.369226 3.048191 -0.128640 -0.022510 0.104590 -4.918264 1.127170 -6.966475 14.995607 1.270594 3.252953 -7.205119 1.598854 6.217289 2.474410 4.598133 -9.121850 5.830140 -12.172424 37.711014 -3.676040 -8.281360 6.045910 -15.661161 -6.757022 4.616325 -44.433347 -2.709721 -6.925746 -13.386401 -28.763917 2.225094 -3.589425 3.326786 -0.199460 0.020180 0.035140 -0.057650 10.125782 3.966350 5.019822 62.281437 0.508707 -6.532363 3.084418 13.696717 -0.979450 3.033032 -1.422471 0.161920 -0.225020 -0.142230 0.174620 
-0.556550 17.768830 -0.880440 -4.141421 -8.927053 1.606339 -14.650438 12.711491 2.770595 5.296503 -2.039341 -14.743941 -9.783560 7.797847 19.836205 0.395767 4.254370 2.960544 -0.044900 -0.022400 0.138960 18.736868 -11.741019 2.830300 0.076384 0.482537 -12.464153 4.280984 -4.632432 15.992743 -0.006374 -3.375656 3.050762 -0.143720 -0.001520 0.103240 -4.849770 0.858796 -6.972037 14.810908 1.065839 3.404601 -7.147329 1.440500 6.134048 2.414546 3.677722 -9.008706 4.051658 -10.404205 38.201934 -3.810110 -6.779090 6.351770 -15.533425 -6.150201 4.372515 -44.857320 -2.810694 -6.956480 -13.414152 -29.278356 2.260185 -3.609159 3.315482 -0.199370 0.034580 0.025290 -0.064540 10.120785 3.914350 5.011242 62.116124 0.059847 -6.967006 3.389315 13.844461 -0.971296 3.031352 -1.403157 0.149490 -0.218020 -0.123580 0.172360 
-0.554060 17.762140 -0.883660 -4.064642 -9.029546 1.508658 -14.672634 12.797687 2.796108 5.207632 -2.058529 -14.815432 -9.747264 7.846679 20.038400 0.397736 4.300369 2.945775 -0.070610 -0.050130 0.125800 18.711128 -11.674156 2.809214 0.069760 0.545438 -12.643664 4.151714 -4.657042 16.489975 0.004491 -3.371364 3.053324 -0.158480 0.015500 0.102130 -4.779973 0.577325 -6.980621 14.672786 0.883660 3.597057 -7.142385 1.322337 6.029777 2.376009 2.665393 -8.960935 2.125522 -8.474480 38.680766 -3.958270 -5.109990 6.623890 -15.418741 -5.599181 4.159850 -45.258577 -2.871149 -6.996000 -13.376751 -29.807366 2.272911 -3.625641 3.303295 -0.193020 0.046160 0.017740 -0.073470 10.077381 3.996359 5.063101 61.972474 -0.391691 -7.425691 3.680646 14.038885 -0.963128 3.028592 -1.384500 0.134560 -0.212940 -0.105410 0.165970 
-0.549040 17.754940 -0.885550 -3.998819 -8.961685 1.407604 -14.698308 12.888739 2.818632 5.111587 -2.089626 -14.888306 -9.651949 7.881516 20.276901 0.391458 4.353011 2.929658 -0.095190 -0.082670 0.119290 18.683282 -11.602988 2.782200 0.027830 0.614821 -12.854771 4.035863 -4.704217 17.100710 0.015672 -3.377983 3.050514 -0.172160 0.032790 0.102200 -4.704355 0.278462 -6.980558 14.567377 0.665238 3.776051 -7.155825 1.163013 5.936063 2.374734 1.631593 -8.906253 0.175487 -6.527144 38.933021 -4.245430 -3.316060 6.872700 -15.290557 -4.991897 3.902482 -45.591347 -3.037693 -6.954000 -13.470209 -30.269635 2.311908 -3.647070 3.290597 -0.183890 0.059960 0.007750 -0.084220 9.950759 4.006381 5.116275 61.816672 -0.886282 -7.897380 4.098849 14.220595 -0.948838 3.022629 -1.366996 0.114890 -0.207540 -0.086310 0.153920 
-0.544120 17.749340 -0.888400 -3.914598 -8.900015 1.332505 -14.728064 12.976660 2.840055 4.987190 -2.124878 -14.967277 -9.558122 7.903671 20.458329 0.372021 4.410234 2.915417 -0.118420 -0.124030 0.123400 18.653709 -11.527444 2.752712 0.006553 0.708457 -13.135448 3.871762 -4.744259 17.761283 0.030940 -3.387532 3.048870 -0.186570 0.053290 0.104560 -4.620962 -0.021741 -6.971856 14.422857 0.456658 3.938502 -7.164757 1.001568 5.830842 2.410485 0.624716 -8.828670 -1.683457 -4.567414 38.897186 -4.725550 -1.335060 7.099900 -15.204010 -4.335951 3.618511 -45.822274 -3.209528 -6.860998 -13.684201 -30.686605 2.372884 -3.677487 3.273198 -0.169810 0.080320 -0.008380 -0.099120 9.800882 3.938095 5.124715 61.720090 -1.304074 -8.319038 4.352077 14.276095 -0.945282 3.011134 -1.349869 0.088040 -0.201780 -0.065520 0.132530 
-0.537940 17.746020 -0.892620 -3.836132 -8.938498 1.253545 -14.755635 13.064705 2.865416 4.850518 -2.174486 -15.104659 -9.479402 7.950863 20.753409 0.347981 4.479390 2.891906 -0.144780 -0.163570 0.113990 18.626502 -11.448272 2.724185 -0.033071 0.787178 -13.353612 3.721439 -4.775864 18.328415 0.046779 -3.392900 3.050120 -0.196730 0.075370 0.099040 -4.543394 -0.332133 -6.965848 14.341847 0.253405 4.167414 -7.181393 0.866825 5.668890 2.390941 -0.518241 -8.788556 -3.806753 -2.428166 38.849800 -4.820350 0.490750 7.143420 -15.165085 -3.667739 3.331153 -46.077049 -3.365733 -6.758858 -13.776987 -31.020196 2.388964 -3.703761 3.251514 -0.150840 0.095030 -0.026000 -0.113040 9.800972 3.959747 5.159050 61.434673 -1.747107 -8.731405 4.527713 14.350572 -0.937035 2.996255 -1.324576 0.056130 -0.188360 -0.037890 0.112850 
-0.532060 17.743420 -0.896030 -3.781725 -8.884472 1.156636 -14.783465 13.147634 2.887102 4.772564 -2.212692 -15.191124 -9.464657 8.003434 20.963700 0.328265 4.544718 2.870228 -0.164480 -0.192240 0.106980 18.600788 -11.366859 2.694425 -0.082595 0.864852 -13.560999 3.657232 -4.835256 18.953081 0.055943 -3.408374 3.043303 -0.201730 0.096220 0.092740 -4.469181 -0.637474 -6.954265 14.275737 0.026814 4.389888 -7.190278 0.706067 5.506828 2.338850 -1.659430 -8.757892 -5.937280 -0.302078 38.623240 -4.700860 2.163830 7.015530 -15.120982 -2.994318 3.043903 -46.346334 -3.600198 -6.611746 -13.771325 -31.222139 2.371295 -3.724896 3.230912 -0.132460 0.104710 -0.039120 -0.123870 9.862079 3.960052 5.179546 61.029215 -2.172244 -9.071672 4.660753 14.314784 -0.928164 2.987237 -1.299986 0.027410 -0.172700 -0.015400 0.097890 
